<?xml version="1.0" encoding="utf-8"?>
<!-- Generator: Adobe Illustrator 25.2.0, SVG Export Plug-In . SVG Version: 6.00 Build 0)  -->
<svg version="1.1" id="Capa_1" xmlns="http://www.w3.org/2000/svg" xmlns:xlink="http://www.w3.org/1999/xlink" x="0px" y="0px"
	 viewBox="0 0 500 115.38" style="enable-background:new 0 0 500 115.38;" xml:space="preserve">
<style type="text/css">
	.st0{fill:#FFFFFF;}
</style>
<path class="st0" d="M9.1,92.43c2.41-1.66,5.21-6.79,5.21-15.7c0.01-17.16,0.01-25.75,0.02-42.91c0-8.04-2.71-14.17-5.22-15.94
	v-0.21c11.24-0.31,16.86-0.46,28.11-0.73c22.16-1,33.36,20.32,33.64,39.38c0.3,20.83-12.78,39.59-35.33,38.16
	c-10.58-0.69-15.87-1.05-26.43-1.82V92.43z M36.51,83.48c12.95,0.67,19.95-9.05,20-27.41C56.56,36.78,49.99,27.84,36.13,28
	c-3.41,0.04-5.12,0.06-8.53,0.1c-0.03,18.3-0.05,36.6-0.07,54.9C31.12,83.2,32.91,83.29,36.51,83.48"/>
<path class="st0" d="M87.16,57.39c0.02-22.01,12.75-44.29,36.23-44.54c21.95-0.24,34.65,23.73,34.58,43.71
	c-0.07,20.73-13.67,45.68-36.39,44.78C99.32,100.45,87.14,78.38,87.16,57.39 M143.45,57.65c0.08-20.6-7.86-32.37-21.08-32.26
	c-12.84,0.11-20.66,12.52-20.73,31.04c-0.07,19.47,7.06,31.98,20.96,32.42C134.55,89.23,143.37,77.15,143.45,57.65"/>
<path class="st0" d="M175.49,97.48c-0.64-8.32-0.95-12.48-1.59-20.79c0.08-0.05,0.12-0.07,0.2-0.12
	c5.83,9.72,12.17,13.44,20.18,13.3c7.92-0.14,11.36-4.35,11.37-11.08c0.02-8.6-5.95-11.88-12.57-15.41
	c-8.48-4.52-17.93-9.66-17.87-26.84c0.04-12.23,8.36-23.57,23.47-23.66c5.07-0.04,9.65,0.69,15.3,2.54
	c0.49,8.19,0.74,12.28,1.23,20.48h-0.2c-4.18-8.24-9.74-10.22-15.4-10.2c-7.42,0.02-11.22,3.26-11.24,9.59
	c-0.02,7.2,5.43,10.06,11.77,13.44c8.68,4.63,19.03,10.16,19,28.91c-0.03,13.87-8.08,25.2-23.93,25.18
	C187.29,102.81,179.87,100.92,175.49,97.48"/>
<path class="st0" d="M285.64,77.35c-1.08,9.94-1.62,14.92-2.7,24.88c-3.62-0.71-6.17-0.93-11.95-0.9
	c-13.84,0.1-20.78,0.11-34.64,0.05c0-0.1,0-0.15,0-0.25c2.45-2.12,5.3-8.25,5.3-18.51c0.01-16.49,0.01-32.98,0.02-49.47
	c0-10.39-2.73-16.4-5.26-18.53v-0.25c14.02-0.02,21.03-0.02,35.05,0.02c3.9,0.01,8.2-0.35,10.34-0.97
	c0.68,8.94,1.02,13.42,1.7,22.37c-0.08,0.04-0.12,0.07-0.2,0.12c-2.35-6.12-7.73-9.26-15.35-9.27c-5.15-0.01-7.73-0.01-12.89-0.01
	l0.01,22.04c2.97,0,4.46,0,7.43,0c8.12-0.01,10.85-0.13,15.25-0.89c-1.12,8.4-1.68,12.6-2.8,21.01c-0.08,0-0.12,0-0.2,0
	c-1.67-5.62-5.2-7.87-10.67-7.86c-3.6,0.01-5.4,0.01-9.01,0.01c0.01,11.27,0.01,16.9,0.01,28.18c4.28-0.01,6.42-0.01,10.69-0.03
	c8.62-0.04,15.47-4.22,19.66-11.86C285.52,77.28,285.56,77.3,285.64,77.35"/>
<path class="st0" d="M337.69,100.21c-13.85,0.37-20.78,0.52-34.67,0.75v-0.25c2.44-2.15,5.25-8.29,5.22-18.46
	c-0.05-16.52-0.09-33.04-0.14-49.56c-0.03-9.81-2.78-15.78-5.31-17.91v-0.25c9.55,0.06,14.33,0.1,23.87,0.18c0,0.1,0,0.15,0,0.25
	c-2.43,2.08-5.23,8.12-5.2,18.26c0.06,18.35,0.12,36.69,0.18,55.04c3.86-0.07,5.79-0.1,9.66-0.19c8.49-0.17,15.3-4.02,19.46-11.42
	c0.08,0.04,0.12,0.07,0.2,0.12c-0.98,9.64-1.46,14.47-2.44,24.14C344.81,100.14,342.17,100.09,337.69,100.21"/>
<path class="st0" d="M374.8,98.76c1.84-2.35,3.28-8.41,0.81-16.65c-5.01-16.83-9.97-33.67-14.89-50.52
	c-1.78-6.08-4.92-12.68-8.92-16.39c0-0.1,0-0.14,0-0.24c9.11,0.11,13.67,0.17,22.77,0.3v0.24c-1.55,2.26-2.21,6.97-0.93,11.56
	c3.47,12.27,5.21,18.38,8.68,30.52c1.58,5.62,4.15,15.74,5.15,24.43c0.15,0,0.23-0.01,0.39-0.01c1.23-8.88,3.42-19.06,4.95-24.68
	c3.22-12,4.83-17.97,8.05-29.82c1.25-4.72,1.03-9.33-0.53-11.6c0-0.09,0-0.14,0-0.24c8.32,0.15,12.48,0.22,20.79,0.39
	c0,0.09,0,0.14,0,0.23c-3.39,2.38-6.19,7.71-8.11,14.49c-4.85,16.86-9.64,33.75-14.37,50.64c-2.3,8.37-0.92,14.15,0.94,16.32v0.23
	c-9.9,0.46-14.85,0.66-24.78,1.04V98.76"/>
<path class="st0" d="M489.32,92.43v0.22c-8.71,0.64-13.07,0.94-21.79,1.52v-0.22c1.64-1.55,2.4-6.11-0.02-13.64
	c-0.35-1.05-0.52-1.57-0.87-2.62c-9.97,0.46-14.96,0.68-24.95,1.1c-0.35,1.1-0.52,1.66-0.86,2.78c-2.49,7.99-1.51,12.65-0.15,14.05
	v0.23c-8.13,0.47-12.19,0.69-20.33,1.12c0-0.1,0-0.14,0-0.23c2.61-2.93,6.75-10.21,9.34-19.2c4.51-15.83,9.08-31.66,13.72-47.45
	c1.92-6.7,0.07-11.5-1.78-13.36c0-0.09,0-0.14,0-0.23c10.29,0.22,15.43,0.34,25.71,0.6c0,0.09,0,0.13,0,0.22
	c-1.84,1.84-3.77,6.39-1.73,12.96c5.73,18.37,8.58,27.41,14.27,45.14C482.48,83.7,486.62,90.14,489.32,92.43 M448.4,55.37
	c-1.42,4.83-2.13,7.26-3.55,12.12c7.43-0.22,11.15-0.34,18.58-0.59c-1.44-4.68-2.16-7.03-3.6-11.74
	c-2.24-7.23-4.68-14.75-5.66-23.43c-0.16,0-0.23,0-0.39,0C452.92,40.4,450.61,47.97,448.4,55.37"/>
</svg>
