<?xml version="1.0" encoding="utf-8"?>
<!-- Generator: Adobe Illustrator 25.2.0, SVG Export Plug-In . SVG Version: 6.00 Build 0)  -->
<svg version="1.1" id="Capa_1" xmlns="http://www.w3.org/2000/svg" xmlns:xlink="http://www.w3.org/1999/xlink" x="0px" y="0px"
	 viewBox="0 0 500 166.48" style="enable-background:new 0 0 500 166.48;" xml:space="preserve">
<style type="text/css">
	.st0{fill:#FFFFFF;}
</style>
<path class="st0" d="M9.1,99.88c2.44-1.68,5.28-6.89,5.28-15.92c0.01-17.4,0.01-26.1,0.02-43.5c0-8.15-2.74-14.37-5.3-16.15v-0.22
	c11.39-0.31,17.1-0.46,28.5-0.74c22.46-1.01,33.82,20.6,34.1,39.92c0.31,21.11-12.96,40.13-35.81,38.68
	c-10.73-0.7-16.09-1.07-26.79-1.85V99.88z M36.89,90.81c13.12,0.68,20.22-9.18,20.27-27.79c0.05-19.54-6.61-28.61-20.66-28.44
	c-3.46,0.04-5.19,0.06-8.64,0.1c-0.02,18.55-0.05,37.1-0.07,55.65C31.42,90.53,33.24,90.62,36.89,90.81"/>
<path class="st0" d="M88.23,64.37c0.02-22.31,12.92-44.9,36.73-45.15c22.25-0.24,35.13,24.05,35.05,44.31
	c-0.07,21.02-13.86,46.31-36.89,45.39C100.56,108.01,88.21,85.64,88.23,64.37 M145.29,64.63c0.08-20.88-7.97-32.81-21.37-32.71
	c-13.01,0.11-20.94,12.7-21.02,31.47c-0.08,19.73,7.15,32.42,21.25,32.87C136.28,96.64,145.21,84.4,145.29,64.63"/>
<path class="st0" d="M177.77,105.01c-0.64-8.43-0.97-12.65-1.61-21.08c0.08-0.05,0.12-0.07,0.2-0.12
	c5.91,9.85,12.33,13.63,20.45,13.49c8.02-0.14,11.51-4.41,11.52-11.24c0.02-8.72-6.03-12.05-12.74-15.62
	c-8.6-4.58-18.17-9.79-18.12-27.21c0.04-12.4,8.47-23.89,23.79-23.99c5.14-0.03,9.78,0.7,15.51,2.58c0.5,8.3,0.75,12.45,1.25,20.76
	h-0.2c-4.24-8.35-9.87-10.36-15.61-10.34c-7.52,0.02-11.38,3.31-11.4,9.73c-0.02,7.3,5.51,10.2,11.93,13.62
	c8.8,4.69,19.29,10.3,19.26,29.31c-0.02,14.06-8.19,25.54-24.25,25.53C189.73,110.41,182.21,108.49,177.77,105.01"/>
<path class="st0" d="M289.44,84.6c-1.09,10.08-1.64,15.13-2.73,25.22c-3.67-0.72-6.26-0.95-12.12-0.91
	c-14.03,0.09-21.07,0.1-35.11,0.05v-0.25c2.49-2.15,5.37-8.36,5.38-18.77c0.01-16.72,0.01-33.43,0.02-50.15
	c0-10.54-2.77-16.63-5.34-18.78v-0.25c14.21-0.02,21.32-0.02,35.53,0.02c3.96,0.01,8.31-0.36,10.48-0.98
	c0.69,9.07,1.03,13.6,1.72,22.67c-0.08,0.05-0.12,0.08-0.2,0.13c-2.39-6.2-7.83-9.38-15.56-9.39c-5.23,0-7.84-0.01-13.07-0.01
	l0.01,22.34c3.02,0,4.52,0,7.53,0c8.23-0.01,11-0.14,15.46-0.91c-1.14,8.52-1.7,12.78-2.84,21.3c-0.08,0-0.12,0-0.2,0
	c-1.69-5.7-5.27-7.97-10.82-7.96c-3.65,0.01-5.48,0.01-9.13,0.01c0,11.43,0.01,17.14,0.01,28.56c4.33-0.01,6.5-0.01,10.83-0.03
	c8.74-0.03,15.68-4.27,19.93-12.02C289.32,84.52,289.36,84.55,289.44,84.6"/>
<path class="st0" d="M342.19,107.77c-14.04,0.38-21.07,0.53-35.14,0.76c0-0.1,0-0.15,0-0.25c2.47-2.18,5.33-8.4,5.3-18.72
	c-0.05-16.74-0.09-33.49-0.14-50.24c-0.03-9.95-2.81-16-5.39-18.16V20.9c9.68,0.06,14.52,0.1,24.2,0.18c0,0.1,0,0.15,0,0.25
	c-2.46,2.1-5.31,8.23-5.27,18.51c0.06,18.6,0.12,37.19,0.18,55.79c3.92-0.07,5.88-0.11,9.79-0.19c8.6-0.17,15.51-4.07,19.72-11.58
	c0.08,0.05,0.12,0.07,0.2,0.12c-0.99,9.78-1.48,14.67-2.47,24.47C349.41,107.7,346.74,107.65,342.19,107.77"/>
<path class="st0" d="M379.82,106.31c1.86-2.39,3.32-8.53,0.82-16.88c-5.08-17.06-10.11-34.13-15.1-51.22
	c-1.8-6.16-4.98-12.85-9.04-16.61v-0.25c9.24,0.11,13.85,0.17,23.08,0.3c0,0.1,0,0.15,0,0.25c-1.57,2.3-2.24,7.07-0.94,11.72
	c3.52,12.44,5.28,18.63,8.8,30.94c1.6,5.69,4.2,15.95,5.22,24.76c0.16,0,0.24-0.01,0.39-0.01c1.24-9,3.47-19.32,5.02-25.02
	c3.26-12.16,4.89-18.21,8.16-30.22c1.26-4.79,1.05-9.46-0.54-11.76c0-0.1,0-0.14,0-0.24c8.43,0.15,12.65,0.23,21.08,0.39
	c0,0.1,0,0.14,0,0.24c-3.44,2.41-6.27,7.81-8.22,14.69c-4.92,17.1-9.77,34.21-14.57,51.34c-2.33,8.49-0.93,14.34,0.95,16.54
	c0,0.1,0,0.15,0,0.24c-10.04,0.46-15.06,0.67-25.12,1.05V106.31"/>
<path class="st0" d="M495.91,99.88v0.22c-8.83,0.64-13.25,0.95-22.09,1.54v-0.23c1.66-1.57,2.44-6.19-0.02-13.83
	c-0.35-1.06-0.53-1.59-0.88-2.66c-10.11,0.47-15.17,0.69-25.29,1.11c-0.35,1.12-0.52,1.69-0.87,2.82
	c-2.53,8.1-1.53,12.82-0.16,14.25c0,0.09,0,0.14,0,0.23c-8.24,0.48-12.36,0.71-20.61,1.13v-0.24c2.64-2.97,6.84-10.36,9.46-19.46
	c4.57-16.06,9.2-32.09,13.91-48.11c1.95-6.79,0.07-11.65-1.81-13.55v-0.23c10.43,0.23,15.64,0.35,26.06,0.61v0.23
	c-1.86,1.86-3.82,6.47-1.75,13.14c5.81,18.62,8.7,27.79,14.47,45.76C488.98,91.03,493.18,97.57,495.91,99.88 M454.43,62.32
	c-1.44,4.9-2.16,7.35-3.6,12.29c7.54-0.23,11.31-0.35,18.83-0.6c-1.46-4.74-2.19-7.12-3.65-11.9c-2.27-7.33-4.74-14.95-5.74-23.75
	c-0.16,0-0.24,0-0.39,0C459.01,47.14,456.67,54.81,454.43,62.32"/>
<path class="st0" d="M140.55,145.56c-0.97-0.31-1.76-0.68-2.37-1.12l1.59-3c0.57,0.39,1.23,0.72,1.96,0.98
	c0.73,0.26,1.44,0.42,2.12,0.47c0.59,0.04,1.01,0.02,1.27-0.08c0.26-0.09,0.4-0.26,0.42-0.49c0.02-0.26-0.13-0.47-0.45-0.63
	c-0.32-0.16-0.85-0.34-1.6-0.55c-0.96-0.27-1.75-0.55-2.38-0.83c-0.63-0.28-1.17-0.7-1.61-1.27c-0.44-0.57-0.63-1.31-0.56-2.22
	c0.06-0.79,0.33-1.5,0.82-2.11c0.49-0.62,1.19-1.08,2.1-1.39c0.91-0.31,1.99-0.42,3.25-0.33c0.86,0.06,1.71,0.22,2.52,0.46
	c0.82,0.24,1.54,0.57,2.15,0.98l-1.5,2.99c-1.19-0.71-2.34-1.11-3.44-1.19c-1.09-0.08-1.66,0.15-1.69,0.68
	c-0.02,0.25,0.13,0.45,0.44,0.6c0.32,0.15,0.84,0.32,1.57,0.52c0.95,0.25,1.74,0.51,2.38,0.79c0.64,0.28,1.19,0.7,1.64,1.27
	c0.45,0.56,0.64,1.3,0.57,2.21c-0.06,0.79-0.33,1.49-0.82,2.1c-0.49,0.61-1.19,1.07-2.1,1.39c-0.91,0.31-1.99,0.43-3.25,0.34
	C142.53,146.06,141.52,145.87,140.55,145.56"/>
<path class="st0" d="M162.73,135.03c0.84,0.44,1.47,1.03,1.9,1.78c0.42,0.75,0.61,1.6,0.55,2.56c-0.06,0.96-0.35,1.79-0.86,2.48
	c-0.51,0.69-1.21,1.2-2.1,1.53c-0.89,0.33-1.91,0.46-3.08,0.39l-1.82-0.11l-0.19,3.1l-4.25-0.26l0.78-12.61l6.07,0.37
	C160.89,134.33,161.89,134.59,162.73,135.03 M160.39,140.17c0.3-0.24,0.47-0.59,0.5-1.06c0.03-0.47-0.09-0.84-0.37-1.12
	c-0.27-0.27-0.7-0.43-1.27-0.47l-1.55-0.1l-0.18,2.95l1.55,0.1C159.65,140.51,160.09,140.41,160.39,140.17"/>
<rect x="164.37" y="139.09" transform="matrix(0.0538 -0.9986 0.9986 0.0538 20.4834 304.0533)" class="st0" width="12.63" height="4.26"/>
<path class="st0" d="M179.62,147.44c-1.04-0.61-1.85-1.43-2.4-2.46c-0.56-1.03-0.81-2.18-0.76-3.46c0.06-1.27,0.42-2.4,1.07-3.37
	c0.65-0.98,1.53-1.72,2.62-2.23c1.1-0.51,2.31-0.73,3.64-0.68c1.23,0.06,2.31,0.32,3.25,0.8c0.94,0.48,1.71,1.14,2.29,1.98
	l-2.79,2.27c-0.74-1.02-1.63-1.55-2.69-1.6c-0.89-0.04-1.62,0.21-2.18,0.76c-0.57,0.55-0.87,1.3-0.92,2.26
	c-0.04,0.96,0.19,1.74,0.7,2.34c0.52,0.59,1.22,0.91,2.11,0.95c1.06,0.05,2-0.4,2.83-1.35l2.58,2.52c-0.66,0.79-1.48,1.38-2.46,1.77
	c-0.98,0.39-2.09,0.56-3.31,0.5C181.85,148.39,180.66,148.05,179.62,147.44"/>
<polygon class="st0" points="202.78,145.71 202.66,148.92 192.17,148.54 192.62,135.92 202.88,136.29 202.76,139.5 196.69,139.28 
	196.63,140.76 201.97,140.95 201.86,144.02 196.52,143.83 196.46,145.48 "/>
<path class="st0" d="M208.1,149.01c-0.99-0.26-1.79-0.6-2.42-1.01l1.45-3.07c0.59,0.37,1.26,0.66,2,0.89
	c0.74,0.23,1.45,0.35,2.14,0.37c0.59,0.02,1.01-0.03,1.27-0.14c0.25-0.11,0.38-0.28,0.39-0.5c0.01-0.27-0.15-0.47-0.48-0.61
	c-0.33-0.14-0.87-0.3-1.62-0.47c-0.97-0.23-1.78-0.47-2.42-0.72c-0.64-0.25-1.2-0.65-1.67-1.2c-0.47-0.55-0.69-1.28-0.66-2.19
	c0.02-0.79,0.26-1.51,0.72-2.15c0.46-0.64,1.14-1.13,2.03-1.48c0.89-0.35,1.97-0.51,3.23-0.47c0.87,0.02,1.71,0.14,2.54,0.35
	c0.83,0.21,1.56,0.5,2.19,0.88l-1.36,3.05c-1.22-0.66-2.39-1-3.49-1.03c-1.09-0.03-1.65,0.22-1.66,0.75
	c-0.01,0.25,0.15,0.44,0.47,0.58c0.32,0.13,0.86,0.28,1.6,0.45c0.96,0.2,1.76,0.43,2.42,0.69c0.66,0.25,1.22,0.65,1.69,1.19
	c0.47,0.54,0.7,1.27,0.68,2.18c-0.02,0.8-0.26,1.51-0.73,2.14c-0.46,0.63-1.14,1.12-2.03,1.48c-0.89,0.36-1.97,0.52-3.23,0.48
	C210.1,149.42,209.08,149.28,208.1,149.01"/>
<polygon class="st0" points="232.4,140.16 232.37,142.32 237.64,142.38 237.6,145.6 232.33,145.53 232.28,149.57 228.02,149.52 
	228.18,136.89 238.44,137.02 238.4,140.23 "/>
<path class="st0" d="M244.65,149.11c-1.08-0.57-1.92-1.36-2.53-2.37c-0.61-1.01-0.91-2.14-0.9-3.4c0.01-1.26,0.32-2.4,0.94-3.4
	c0.62-1,1.47-1.78,2.55-2.34c1.09-0.56,2.31-0.84,3.67-0.83c1.36,0.01,2.58,0.3,3.66,0.87c1.08,0.57,1.92,1.36,2.53,2.37
	c0.61,1.01,0.91,2.15,0.9,3.41c-0.01,1.26-0.32,2.4-0.94,3.4c-0.62,1-1.47,1.78-2.56,2.34c-1.08,0.56-2.31,0.84-3.67,0.83
	C246.95,149.97,245.73,149.68,244.65,149.11 M249.76,146.15c0.43-0.26,0.77-0.62,1.03-1.1s0.38-1.03,0.39-1.67
	c0-0.64-0.12-1.19-0.37-1.67c-0.25-0.48-0.59-0.85-1.01-1.11c-0.43-0.26-0.9-0.39-1.43-0.39c-0.53,0-1.01,0.13-1.44,0.38
	c-0.43,0.26-0.77,0.62-1.03,1.09c-0.25,0.48-0.38,1.03-0.39,1.67c0,0.64,0.12,1.19,0.37,1.67c0.25,0.48,0.59,0.85,1.01,1.11
	c0.43,0.26,0.9,0.39,1.43,0.39C248.85,146.54,249.33,146.41,249.76,146.15"/>
<path class="st0" d="M264.6,146.46l-1.15,0.01l0.03,3.18l-4.26,0.04l-0.11-12.63l6.08-0.06c1.17-0.01,2.18,0.17,3.05,0.55
	c0.87,0.38,1.54,0.92,2.02,1.64c0.47,0.72,0.72,1.56,0.73,2.52c0.01,0.9-0.19,1.69-0.59,2.37c-0.4,0.68-0.99,1.22-1.75,1.62
	l2.69,3.87l-4.55,0.04L264.6,146.46z M266.25,140.66c-0.29-0.26-0.73-0.38-1.3-0.37l-1.55,0.01l0.03,2.96l1.55-0.01
	c0.58-0.01,1.01-0.14,1.3-0.4c0.29-0.26,0.43-0.63,0.42-1.1C266.69,141.28,266.54,140.92,266.25,140.66"/>
<rect x="282.23" y="136.7" transform="matrix(0.9998 -0.022 0.022 0.9998 -3.0838 6.3036)" class="st0" width="4.26" height="12.63"/>
<polygon class="st0" points="302.12,148.84 301.9,143.09 299.3,147.79 297.43,147.85 294.55,143.52 294.72,149.07 290.85,149.19 
	290.45,136.57 293.95,136.46 298.27,143.06 302.06,136.21 305.56,136.1 305.99,148.72 "/>
<path class="st0" d="M318.77,136.13c0.88,0.35,1.57,0.87,2.07,1.57c0.5,0.7,0.77,1.53,0.81,2.49c0.04,0.96-0.16,1.81-0.59,2.55
	c-0.44,0.74-1.08,1.32-1.93,1.74c-0.85,0.42-1.86,0.66-3.02,0.71l-1.82,0.08l0.13,3.1l-4.25,0.18l-0.54-12.62l6.08-0.26
	C316.87,135.63,317.89,135.78,318.77,136.13 M316.98,141.49c0.28-0.27,0.41-0.64,0.39-1.11c-0.02-0.47-0.18-0.83-0.48-1.07
	c-0.3-0.25-0.74-0.36-1.31-0.33l-1.55,0.07l0.13,2.96l1.55-0.07C316.27,141.9,316.7,141.76,316.98,141.49"/>
<path class="st0" d="M333.38,145.26l-4.79,0.25l-0.73,2.24l-4.32,0.23l4.85-12.9l4.18-0.22l6.18,12.32l-4.4,0.23L333.38,145.26z
	 M332.04,142.26l-1.39-3.11l-1.06,3.24L332.04,142.26z"/>
<path class="st0" d="M344.26,146.28c-1.1-0.49-1.99-1.22-2.66-2.18c-0.67-0.96-1.05-2.08-1.13-3.36c-0.08-1.27,0.15-2.43,0.69-3.47
	c0.54-1.04,1.33-1.87,2.36-2.5c1.03-0.63,2.21-0.98,3.55-1.07c1.23-0.08,2.33,0.07,3.32,0.44c0.99,0.37,1.82,0.94,2.5,1.72
	l-2.53,2.57c-0.84-0.93-1.79-1.37-2.85-1.3c-0.89,0.06-1.59,0.39-2.09,0.99c-0.5,0.6-0.73,1.39-0.67,2.35
	c0.06,0.96,0.38,1.71,0.96,2.24c0.58,0.54,1.31,0.78,2.2,0.72c1.06-0.07,1.94-0.62,2.66-1.65l2.83,2.22
	c-0.57,0.86-1.32,1.53-2.26,2.02c-0.93,0.49-2.01,0.78-3.24,0.86C346.58,146.97,345.36,146.77,344.26,146.28"/>
<polygon class="st0" points="358.9,136.5 355.21,136.77 354.97,133.48 366.59,132.63 366.83,135.92 363.14,136.19 363.83,145.49 
	359.58,145.81 "/>
</svg>
